<svg width="512" height="512" viewBox="0 0 512 512" xmlns="http://www.w3.org/2000/svg"><svg width="512" height="512" viewBox="0 0 512 512" fill="none" xmlns="http://www.w3.org/2000/svg">

  <defs>  <!-- Background Circle -->

    <linearGradient id="logoGradient" x1="0%" y1="0%" x2="100%" y2="100%">  <circle cx="256" cy="256" r="256" fill="url(#gradient1)"/>

      <stop offset="0%" style="stop-color:#10b981;stop-opacity:1" />  

      <stop offset="100%" style="stop-color:#059669;stop-opacity:1" />  <!-- Gradients -->

    </linearGradient>  <defs>

    <linearGradient id="leafGradient" x1="0%" y1="0%" x2="100%" y2="100%">    <linearGradient id="gradient1" x1="0" y1="0" x2="512" y2="512" gradientUnits="userSpaceOnUse">

      <stop offset="0%" style="stop-color:#34d399;stop-opacity:1" />      <stop offset="0%" stop-color="#10b981"/>

      <stop offset="100%" style="stop-color:#10b981;stop-opacity:1" />      <stop offset="50%" stop-color="#14b8a6"/>

    </linearGradient>      <stop offset="100%" stop-color="#06b6d4"/>

    <filter id="shadow">    </linearGradient>

      <feDropShadow dx="0" dy="4" stdDeviation="8" flood-opacity="0.15"/>    <linearGradient id="gradient2" x1="0" y1="0" x2="512" y2="512" gradientUnits="userSpaceOnUse">

    </filter>      <stop offset="0%" stop-color="#ffffff"/>

  </defs>      <stop offset="100%" stop-color="#f0fdf4"/>

      </linearGradient>

  <!-- Background Circle -->  </defs>

  <circle cx="256" cy="256" r="240" fill="url(#logoGradient)" filter="url(#shadow)"/>  

    <!-- Recycling Symbol with Modern Style -->

  <!-- Outer Ring -->  <g transform="translate(256, 256)">

  <circle cx="256" cy="256" r="200" fill="none" stroke="#d1fae5" stroke-width="3" opacity="0.3"/>    <!-- Outer Circle -->

      <circle cx="0" cy="0" r="140" fill="none" stroke="url(#gradient2)" stroke-width="8" opacity="0.3"/>

  <!-- Recycling Arrows (Modern Style) -->    

  <g transform="translate(256, 256)">    <!-- Recycling Arrows -->

    <!-- Arrow 1 (Top) -->    <!-- Arrow 1 (Top) -->

    <g transform="rotate(0)">    <path d="M 0,-90 L 30,-60 L 15,-60 L 15,-30 L -15,-30 L -15,-60 L -30,-60 Z" fill="white" opacity="0.95"/>

      <path d="M 0,-120 L 40,-60 L 20,-60 L 20,-40 L -20,-40 L -20,-60 L -40,-60 Z"     <path d="M 0,-90 L -8,-75 L 8,-75 Z" fill="white" opacity="0.95"/>

            fill="#ffffff" opacity="0.95"/>    

      <circle cx="0" cy="-80" r="12" fill="#d1fae5"/>    <!-- Arrow 2 (Bottom Right) -->

    </g>    <g transform="rotate(120)">

          <path d="M 0,-90 L 30,-60 L 15,-60 L 15,-30 L -15,-30 L -15,-60 L -30,-60 Z" fill="white" opacity="0.95"/>

    <!-- Arrow 2 (Bottom Right) -->      <path d="M 0,-90 L -8,-75 L 8,-75 Z" fill="white" opacity="0.95"/>

    <g transform="rotate(120)">    </g>

      <path d="M 0,-120 L 40,-60 L 20,-60 L 20,-40 L -20,-40 L -20,-60 L -40,-60 Z"     

            fill="#ffffff" opacity="0.95"/>    <!-- Arrow 3 (Bottom Left) -->

      <circle cx="0" cy="-80" r="12" fill="#d1fae5"/>    <g transform="rotate(240)">

    </g>      <path d="M 0,-90 L 30,-60 L 15,-60 L 15,-30 L -15,-30 L -15,-60 L -30,-60 Z" fill="white" opacity="0.95"/>

          <path d="M 0,-90 L -8,-75 L 8,-75 Z" fill="white" opacity="0.95"/>

    <!-- Arrow 3 (Bottom Left) -->    </g>

    <g transform="rotate(240)">    

      <path d="M 0,-120 L 40,-60 L 20,-60 L 20,-40 L -20,-40 L -20,-60 L -40,-60 Z"     <!-- Inner Circle with E -->

            fill="#ffffff" opacity="0.95"/>    <circle cx="0" cy="0" r="50" fill="white" opacity="0.2"/>

      <circle cx="0" cy="-80" r="12" fill="#d1fae5"/>    <text x="0" y="20" font-family="Arial, sans-serif" font-size="60" font-weight="bold" fill="white" text-anchor="middle">E</text>

    </g>  </g>

      

    <!-- Center Circle with Leaf -->  <!-- Decorative Elements -->

    <circle cx="0" cy="0" r="70" fill="#047857"/>  <circle cx="140" cy="140" r="8" fill="white" opacity="0.4"/>

    <circle cx="0" cy="0" r="60" fill="#ffffff"/>  <circle cx="372" cy="140" r="6" fill="white" opacity="0.3"/>

      <circle cx="140" cy="372" r="6" fill="white" opacity="0.3"/>

    <!-- Eco Leaf Symbol -->  <circle cx="372" cy="372" r="8" fill="white" opacity="0.4"/>

    <g transform="scale(1.2)"></svg>

      <path d="M 0,-35 Q -25,-20 -25,10 Q -25,25 -15,35 Q -5,40 0,35 Q 5,40 15,35 Q 25,25 25,10 Q 25,-20 0,-35 Z" 
            fill="url(#leafGradient)"/>
      <path d="M 0,-30 L 0,30" stroke="#047857" stroke-width="3" stroke-linecap="round"/>
      <path d="M -8,0 Q 0,-5 0,0" stroke="#047857" stroke-width="2" fill="none"/>
      <path d="M 8,0 Q 0,5 0,0" stroke="#047857" stroke-width="2" fill="none"/>
    </g>
  </g>
  
  <!-- Decorative Dots -->
  <circle cx="256" cy="56" r="6" fill="#d1fae5" opacity="0.6"/>
  <circle cx="456" cy="256" r="6" fill="#d1fae5" opacity="0.6"/>
  <circle cx="256" cy="456" r="6" fill="#d1fae5" opacity="0.6"/>
  <circle cx="56" cy="256" r="6" fill="#d1fae5" opacity="0.6"/>
</svg>
